<mxfile host="app.diagrams.net" agent="Mozilla/5.0 (Macintosh; Intel Mac OS X 10_15_7) AppleWebKit/537.36 (KHTML, like Gecko) Chrome/131.0.0.0 Safari/537.36" version="24.9.2">
  <diagram name="Page-1" id="fRY9z0AR3oCZqyxYs5V-">
    <mxGraphModel dx="2448" dy="1248" grid="1" gridSize="10" guides="1" tooltips="1" connect="1" arrows="1" fold="1" page="1" pageScale="1" pageWidth="850" pageHeight="1100" math="0" shadow="0">
      <root>
        <mxCell id="0" />
        <mxCell id="1" parent="0" />
        <mxCell id="r7KjEFCqeUnHoqmisfhN-63" value="&amp;lt;&amp;gt; Event Management System" style="whiteSpace=wrap;strokeWidth=2;" vertex="1" parent="1">
          <mxGeometry x="355" y="309" width="206" height="66" as="geometry" />
        </mxCell>
        <mxCell id="r7KjEFCqeUnHoqmisfhN-64" value="&amp;lt;&amp;gt; Event Manager" style="whiteSpace=wrap;strokeWidth=2;" vertex="1" parent="1">
          <mxGeometry x="468" y="447" width="230" height="49" as="geometry" />
        </mxCell>
        <mxCell id="r7KjEFCqeUnHoqmisfhN-65" value="&amp;lt;&amp;gt; Profile Manager" style="whiteSpace=wrap;strokeWidth=2;" vertex="1" parent="1">
          <mxGeometry x="1636" y="595" width="236" height="49" as="geometry" />
        </mxCell>
        <mxCell id="r7KjEFCqeUnHoqmisfhN-66" value="&amp;lt;&amp;gt; Notification Manager" style="whiteSpace=wrap;strokeWidth=2;" vertex="1" parent="1">
          <mxGeometry x="1569" y="863" width="209" height="66" as="geometry" />
        </mxCell>
        <mxCell id="r7KjEFCqeUnHoqmisfhN-67" value="&amp;lt;&amp;gt; Feedback Processor" style="whiteSpace=wrap;strokeWidth=2;" vertex="1" parent="1">
          <mxGeometry x="785" y="586" width="193" height="66" as="geometry" />
        </mxCell>
        <mxCell id="r7KjEFCqeUnHoqmisfhN-68" value="&amp;lt;&amp;gt; Analytics Manager" style="whiteSpace=wrap;strokeWidth=2;" vertex="1" parent="1">
          <mxGeometry x="855" y="733" width="253" height="49" as="geometry" />
        </mxCell>
        <mxCell id="r7KjEFCqeUnHoqmisfhN-69" value="&amp;lt;&amp;gt; Organizer" style="whiteSpace=wrap;strokeWidth=2;" vertex="1" parent="1">
          <mxGeometry x="1075" y="317" width="194" height="49" as="geometry" />
        </mxCell>
        <mxCell id="r7KjEFCqeUnHoqmisfhN-70" value="&amp;lt;&amp;gt; Attendee" style="whiteSpace=wrap;strokeWidth=2;" vertex="1" parent="1">
          <mxGeometry x="2023" y="317" width="190" height="49" as="geometry" />
        </mxCell>
        <mxCell id="r7KjEFCqeUnHoqmisfhN-71" value="&amp;lt;&amp;gt; Administrator" style="whiteSpace=wrap;strokeWidth=2;" vertex="1" parent="1">
          <mxGeometry x="822" y="872" width="222" height="49" as="geometry" />
        </mxCell>
        <mxCell id="r7KjEFCqeUnHoqmisfhN-72" value="&amp;lt;&amp;gt; IEventManager" style="whiteSpace=wrap;strokeWidth=2;" vertex="1" parent="1">
          <mxGeometry x="506" y="595" width="229" height="49" as="geometry" />
        </mxCell>
        <mxCell id="r7KjEFCqeUnHoqmisfhN-73" value="&amp;lt;&amp;gt; IProfileManager" style="whiteSpace=wrap;strokeWidth=2;" vertex="1" parent="1">
          <mxGeometry x="1801" y="733" width="236" height="49" as="geometry" />
        </mxCell>
        <mxCell id="r7KjEFCqeUnHoqmisfhN-74" value="&amp;lt;&amp;gt; INotification" style="whiteSpace=wrap;strokeWidth=2;" vertex="1" parent="1">
          <mxGeometry x="1566" y="1002" width="214" height="49" as="geometry" />
        </mxCell>
        <mxCell id="r7KjEFCqeUnHoqmisfhN-75" value="&amp;lt;&amp;gt; IFeedbackProcessor" style="whiteSpace=wrap;strokeWidth=2;" vertex="1" parent="1">
          <mxGeometry x="605" y="724" width="200" height="66" as="geometry" />
        </mxCell>
        <mxCell id="r7KjEFCqeUnHoqmisfhN-76" value="&amp;lt;&amp;gt; IAnalyticsManager" style="whiteSpace=wrap;strokeWidth=2;" vertex="1" parent="1">
          <mxGeometry x="1093" y="872" width="253" height="49" as="geometry" />
        </mxCell>
        <mxCell id="r7KjEFCqeUnHoqmisfhN-77" value="&amp;lt;&amp;gt; Event Data" style="whiteSpace=wrap;strokeWidth=2;" vertex="1" parent="1">
          <mxGeometry x="253" y="595" width="203" height="49" as="geometry" />
        </mxCell>
        <mxCell id="r7KjEFCqeUnHoqmisfhN-78" value="&amp;lt;&amp;gt; User Data" style="whiteSpace=wrap;strokeWidth=2;" vertex="1" parent="1">
          <mxGeometry x="1557" y="733" width="194" height="49" as="geometry" />
        </mxCell>
        <mxCell id="r7KjEFCqeUnHoqmisfhN-79" value="&amp;lt;&amp;gt; Analytics Reports" style="whiteSpace=wrap;strokeWidth=2;" vertex="1" parent="1">
          <mxGeometry x="525" y="872" width="247" height="49" as="geometry" />
        </mxCell>
        <mxCell id="r7KjEFCqeUnHoqmisfhN-80" value="&amp;lt;&amp;gt; Server A" style="whiteSpace=wrap;strokeWidth=2;" vertex="1" parent="1">
          <mxGeometry x="20" y="595" width="183" height="49" as="geometry" />
        </mxCell>
        <mxCell id="r7KjEFCqeUnHoqmisfhN-81" value="&amp;lt;&amp;gt; Server B" style="whiteSpace=wrap;strokeWidth=2;" vertex="1" parent="1">
          <mxGeometry x="1323" y="733" width="184" height="49" as="geometry" />
        </mxCell>
        <mxCell id="r7KjEFCqeUnHoqmisfhN-82" value="&amp;lt;&amp;gt; Account System" style="whiteSpace=wrap;strokeWidth=2;" vertex="1" parent="1">
          <mxGeometry x="2000" y="170" width="237" height="49" as="geometry" />
        </mxCell>
        <mxCell id="r7KjEFCqeUnHoqmisfhN-83" value="Provides IEventManager" style="curved=1;startArrow=none;endArrow=block;exitX=0.5;exitY=1;entryX=0.28;entryY=0;rounded=0;" edge="1" parent="1" source="r7KjEFCqeUnHoqmisfhN-63" target="r7KjEFCqeUnHoqmisfhN-64">
          <mxGeometry relative="1" as="geometry">
            <Array as="points">
              <mxPoint x="458" y="411" />
            </Array>
          </mxGeometry>
        </mxCell>
        <mxCell id="r7KjEFCqeUnHoqmisfhN-84" value="Requires IProfileManager" style="curved=1;startArrow=none;endArrow=block;exitX=1;exitY=0.64;entryX=0.5;entryY=-0.01;rounded=0;" edge="1" parent="1" source="r7KjEFCqeUnHoqmisfhN-64" target="r7KjEFCqeUnHoqmisfhN-65">
          <mxGeometry relative="1" as="geometry">
            <Array as="points">
              <mxPoint x="1754" y="541" />
            </Array>
          </mxGeometry>
        </mxCell>
        <mxCell id="r7KjEFCqeUnHoqmisfhN-85" value="Requires INotification" style="curved=1;startArrow=none;endArrow=block;exitX=1;exitY=0.73;entryX=0;entryY=0.23;rounded=0;" edge="1" parent="1" source="r7KjEFCqeUnHoqmisfhN-64" target="r7KjEFCqeUnHoqmisfhN-66">
          <mxGeometry relative="1" as="geometry">
            <Array as="points">
              <mxPoint x="1275" y="541" />
              <mxPoint x="1275" y="827" />
            </Array>
          </mxGeometry>
        </mxCell>
        <mxCell id="r7KjEFCqeUnHoqmisfhN-86" value="Requires IFeedbackProcessor" style="curved=1;startArrow=none;endArrow=block;exitX=0.95;exitY=0.99;entryX=0.5;entryY=0;rounded=0;" edge="1" parent="1" source="r7KjEFCqeUnHoqmisfhN-64" target="r7KjEFCqeUnHoqmisfhN-67">
          <mxGeometry relative="1" as="geometry">
            <Array as="points">
              <mxPoint x="881" y="541" />
            </Array>
          </mxGeometry>
        </mxCell>
        <mxCell id="r7KjEFCqeUnHoqmisfhN-87" value="Provides IAnalyticsManager" style="curved=1;startArrow=none;endArrow=block;exitX=0.75;exitY=1;entryX=0.5;entryY=0;rounded=0;" edge="1" parent="1" source="r7KjEFCqeUnHoqmisfhN-67" target="r7KjEFCqeUnHoqmisfhN-68">
          <mxGeometry relative="1" as="geometry">
            <Array as="points">
              <mxPoint x="982" y="688" />
            </Array>
          </mxGeometry>
        </mxCell>
        <mxCell id="r7KjEFCqeUnHoqmisfhN-88" value="Provides Analytics Reports" style="curved=1;startArrow=none;endArrow=block;exitX=0.75;exitY=0.99;entryX=0.86;entryY=0;rounded=0;" edge="1" parent="1" source="r7KjEFCqeUnHoqmisfhN-68" target="r7KjEFCqeUnHoqmisfhN-71">
          <mxGeometry relative="1" as="geometry">
            <Array as="points">
              <mxPoint x="1159" y="827" />
            </Array>
          </mxGeometry>
        </mxCell>
        <mxCell id="r7KjEFCqeUnHoqmisfhN-89" value="Uses IEventManager" style="curved=1;startArrow=none;endArrow=block;exitX=0.5;exitY=1;entryX=1;entryY=0.26;rounded=0;" edge="1" parent="1" source="r7KjEFCqeUnHoqmisfhN-69" target="r7KjEFCqeUnHoqmisfhN-64">
          <mxGeometry relative="1" as="geometry">
            <Array as="points">
              <mxPoint x="1172" y="411" />
            </Array>
          </mxGeometry>
        </mxCell>
        <mxCell id="r7KjEFCqeUnHoqmisfhN-90" value="Uses IEventManager" style="curved=1;startArrow=none;endArrow=block;exitX=0.59;exitY=1;entryX=1;entryY=0.41;rounded=0;" edge="1" parent="1" source="r7KjEFCqeUnHoqmisfhN-70" target="r7KjEFCqeUnHoqmisfhN-64">
          <mxGeometry relative="1" as="geometry">
            <Array as="points">
              <mxPoint x="2165" y="411" />
            </Array>
          </mxGeometry>
        </mxCell>
        <mxCell id="r7KjEFCqeUnHoqmisfhN-91" value="Uses INotification" style="curved=1;startArrow=none;endArrow=block;exitX=0.42;exitY=1;entryX=1;entryY=0.23;rounded=0;" edge="1" parent="1" source="r7KjEFCqeUnHoqmisfhN-70" target="r7KjEFCqeUnHoqmisfhN-66">
          <mxGeometry relative="1" as="geometry">
            <Array as="points">
              <mxPoint x="2072" y="411" />
              <mxPoint x="2072" y="827" />
            </Array>
          </mxGeometry>
        </mxCell>
        <mxCell id="r7KjEFCqeUnHoqmisfhN-92" value="Uses IAnalyticsManager" style="curved=1;startArrow=none;endArrow=block;exitX=0.18;exitY=0;entryX=0.15;entryY=0.99;rounded=0;" edge="1" parent="1" source="r7KjEFCqeUnHoqmisfhN-71" target="r7KjEFCqeUnHoqmisfhN-68">
          <mxGeometry relative="1" as="geometry">
            <Array as="points">
              <mxPoint x="729" y="827" />
            </Array>
          </mxGeometry>
        </mxCell>
        <mxCell id="r7KjEFCqeUnHoqmisfhN-93" value="Uses" style="curved=1;startArrow=none;endArrow=block;exitX=0.56;exitY=0.99;entryX=0.5;entryY=-0.01;rounded=0;" edge="1" parent="1" source="r7KjEFCqeUnHoqmisfhN-64" target="r7KjEFCqeUnHoqmisfhN-72">
          <mxGeometry relative="1" as="geometry">
            <Array as="points">
              <mxPoint x="620" y="541" />
            </Array>
          </mxGeometry>
        </mxCell>
        <mxCell id="r7KjEFCqeUnHoqmisfhN-94" value="Uses" style="curved=1;startArrow=none;endArrow=block;exitX=0.74;exitY=0.98;entryX=0.5;entryY=0;rounded=0;" edge="1" parent="1" source="r7KjEFCqeUnHoqmisfhN-65" target="r7KjEFCqeUnHoqmisfhN-73">
          <mxGeometry relative="1" as="geometry">
            <Array as="points">
              <mxPoint x="1919" y="688" />
            </Array>
          </mxGeometry>
        </mxCell>
        <mxCell id="r7KjEFCqeUnHoqmisfhN-95" value="Uses" style="curved=1;startArrow=none;endArrow=block;exitX=0.5;exitY=1;entryX=0.5;entryY=-0.01;rounded=0;" edge="1" parent="1" source="r7KjEFCqeUnHoqmisfhN-66" target="r7KjEFCqeUnHoqmisfhN-74">
          <mxGeometry relative="1" as="geometry">
            <Array as="points" />
          </mxGeometry>
        </mxCell>
        <mxCell id="r7KjEFCqeUnHoqmisfhN-96" value="Uses" style="curved=1;startArrow=none;endArrow=block;exitX=0.06;exitY=1;entryX=0.5;entryY=0.01;rounded=0;" edge="1" parent="1" source="r7KjEFCqeUnHoqmisfhN-67" target="r7KjEFCqeUnHoqmisfhN-75">
          <mxGeometry relative="1" as="geometry">
            <Array as="points">
              <mxPoint x="705" y="688" />
            </Array>
          </mxGeometry>
        </mxCell>
        <mxCell id="r7KjEFCqeUnHoqmisfhN-97" value="Uses" style="curved=1;startArrow=none;endArrow=block;exitX=0.54;exitY=0.99;entryX=0.21;entryY=0;rounded=0;" edge="1" parent="1" source="r7KjEFCqeUnHoqmisfhN-68" target="r7KjEFCqeUnHoqmisfhN-76">
          <mxGeometry relative="1" as="geometry">
            <Array as="points">
              <mxPoint x="1010" y="827" />
            </Array>
          </mxGeometry>
        </mxCell>
        <mxCell id="r7KjEFCqeUnHoqmisfhN-98" value="Uses" style="curved=1;startArrow=none;endArrow=block;exitX=0.15;exitY=0.99;entryX=0.5;entryY=-0.01;rounded=0;" edge="1" parent="1" source="r7KjEFCqeUnHoqmisfhN-64" target="r7KjEFCqeUnHoqmisfhN-77">
          <mxGeometry relative="1" as="geometry">
            <Array as="points">
              <mxPoint x="354" y="541" />
            </Array>
          </mxGeometry>
        </mxCell>
        <mxCell id="r7KjEFCqeUnHoqmisfhN-99" value="Uses" style="curved=1;startArrow=none;endArrow=block;exitX=0.35;exitY=0.98;entryX=0.5;entryY=0;rounded=0;" edge="1" parent="1" source="r7KjEFCqeUnHoqmisfhN-65" target="r7KjEFCqeUnHoqmisfhN-78">
          <mxGeometry relative="1" as="geometry">
            <Array as="points">
              <mxPoint x="1654" y="688" />
            </Array>
          </mxGeometry>
        </mxCell>
        <mxCell id="r7KjEFCqeUnHoqmisfhN-100" value="Uses" style="curved=1;startArrow=none;endArrow=block;exitX=0.4;exitY=0.99;entryX=0.86;entryY=0;rounded=0;" edge="1" parent="1" source="r7KjEFCqeUnHoqmisfhN-68" target="r7KjEFCqeUnHoqmisfhN-79">
          <mxGeometry relative="1" as="geometry">
            <Array as="points">
              <mxPoint x="906" y="827" />
            </Array>
          </mxGeometry>
        </mxCell>
        <mxCell id="r7KjEFCqeUnHoqmisfhN-101" value="Deploys" style="curved=1;startArrow=none;endArrow=block;exitX=0.36;exitY=-0.01;entryX=0;entryY=0.79;rounded=0;" edge="1" parent="1" source="r7KjEFCqeUnHoqmisfhN-80" target="r7KjEFCqeUnHoqmisfhN-64">
          <mxGeometry relative="1" as="geometry">
            <Array as="points">
              <mxPoint x="29" y="541" />
            </Array>
          </mxGeometry>
        </mxCell>
        <mxCell id="r7KjEFCqeUnHoqmisfhN-102" value="Deploys" style="curved=1;startArrow=none;endArrow=block;exitX=0.5;exitY=0.99;entryX=0;entryY=0.08;rounded=0;" edge="1" parent="1" source="r7KjEFCqeUnHoqmisfhN-81" target="r7KjEFCqeUnHoqmisfhN-66">
          <mxGeometry relative="1" as="geometry">
            <Array as="points">
              <mxPoint x="1415" y="827" />
            </Array>
          </mxGeometry>
        </mxCell>
        <mxCell id="r7KjEFCqeUnHoqmisfhN-103" value="Delegates Account Operations" style="curved=1;startArrow=none;endArrow=block;exitX=0.5;exitY=0.99;entryX=0.5;entryY=0.01;rounded=0;" edge="1" parent="1" source="r7KjEFCqeUnHoqmisfhN-82" target="r7KjEFCqeUnHoqmisfhN-70">
          <mxGeometry relative="1" as="geometry">
            <Array as="points" />
          </mxGeometry>
        </mxCell>
        <mxCell id="r7KjEFCqeUnHoqmisfhN-104" value="Deploys on" style="curved=1;startArrow=none;endArrow=block;exitX=0;exitY=0.88;entryX=0.58;entryY=-0.01;rounded=0;" edge="1" parent="1" source="r7KjEFCqeUnHoqmisfhN-64" target="r7KjEFCqeUnHoqmisfhN-80">
          <mxGeometry relative="1" as="geometry">
            <Array as="points">
              <mxPoint x="156" y="541" />
            </Array>
          </mxGeometry>
        </mxCell>
        <mxCell id="r7KjEFCqeUnHoqmisfhN-105" value="Deploys on" style="curved=1;startArrow=none;endArrow=block;exitX=0;exitY=0.98;entryX=0.5;entryY=0;rounded=0;" edge="1" parent="1" source="r7KjEFCqeUnHoqmisfhN-65" target="r7KjEFCqeUnHoqmisfhN-81">
          <mxGeometry relative="1" as="geometry">
            <Array as="points">
              <mxPoint x="1415" y="688" />
            </Array>
          </mxGeometry>
        </mxCell>
      </root>
    </mxGraphModel>
  </diagram>
</mxfile>
